HIERARCHY
ROOT ui
{
	 OFFSET 0 0 0
	 CHANNELS 3 XPosition YPosition Z Position
	 EndSite
	 {
	 OFFSET 0 -1 0
	 }
}
ROOT li
{
	 OFFSET 0 0 0
	 CHANNELS 3 XPosition YPosition Z Position
	 EndSite
	 {
	 OFFSET 0 -1 0
	 }
}
ROOT ul
{
	 OFFSET 0 0 0
	 CHANNELS 3 XPosition YPosition Z Position
	 EndSite
	 {
	 OFFSET 0 -1 0
	 }
}
ROOT ll
{
	 OFFSET 0 0 0
	 CHANNELS 3 XPosition YPosition Z Position
	 EndSite
	 {
	 OFFSET 0 -1 0
	 }
}
ROOT tt
{
	 OFFSET 0 0 0
	 CHANNELS 3 XPosition YPosition Z Position
	 EndSite
	 {
	 OFFSET 0 -1 0
	 }
}
ROOT tb
{
	 OFFSET 0 0 0
	 CHANNELS 3 XPosition YPosition Z Position
	 EndSite
	 {
	 OFFSET 0 -1 0
	 }
}
ROOT td
{
	 OFFSET 0 0 0
	 CHANNELS 3 XPosition YPosition Z Position
	 EndSite
	 {
	 OFFSET 0 -1 0
	 }
}
ROOT v
{
	 OFFSET 0 0 0
	 CHANNELS 3 XPosition YPosition Z Position
	 EndSite
	 {
	 OFFSET 0 -1 0
	 }
}
ROOT bn
{
	 OFFSET 0 0 0
	 CHANNELS 3 XPosition YPosition Z Position
	 EndSite
	 {
	 OFFSET 0 -1 0
	 }
}
MOTION
Frames: 13
Frame Time: 0.002
-0.0021199779510498048	-6.802710294723511E-4	0		0.466911376953125	-2.41691845703125	0		-1.1133372802734376	3.466300070285797E-4	0		-0.7820537109375	-2.547065185546875	0		1.420345703125	-0.8133311157226563	0		2.956239501953125	-0.01398634433746338	0		4.5129521484375	0.29382150268554685	0		5.65494482421875	0.19549858093261718	0		-0.3255777282714844	5.91629296875	0		
0.022548456192016602	-0.0013186999559402467	0		0.41662579345703127	-2.408026611328125	0		-1.1766705322265625	5.996689796447754E-4	0		-0.8113303833007812	-2.53753955078125	0		1.4288885498046875	-0.817716552734375	0		2.935875244140625	-0.01585635852813721	0		4.5167666015625	0.2993631591796875	0		5.66177880859375	0.18747157287597657	0		-0.3113650207519531	5.9258994140625	0		
0.0025269620418548583	0.0139710054397583	0		0.46906295776367185	-2.41327490234375	0		-1.1040455322265625	-0.001979940056800842	0		-0.777875244140625	-2.541325927734375	0		1.4315889892578124	-0.8139794311523437	0		2.94468017578125	-0.009326045036315917	0		4.5164443359375	0.298997314453125	0		5.6638359375	0.2056583709716797	0		-0.3255892333984375	5.91608740234375	0		
-0.003130892992019653	-0.0010451350212097167	0		0.44366165161132814	-2.40990087890625	0		-1.1901226806640626	0.01174598217010498	0		-0.8143224487304688	-2.539658447265625	0		1.4281181640625	-0.818112548828125	0		2.962412841796875	-0.0059766068458557125	0		4.51611328125	0.2986434020996094	0		5.6635849609375	0.20495310974121095	0		-0.32563409423828127	5.91597998046875	0		
-0.003482919931411743	-0.0011688950061798096	0		0.4670845947265625	-2.41554736328125	0		-1.1106380615234375	0.0030059831142425536	0		-0.7916752319335938	-2.53422607421875	0		1.42772705078125	-0.8183046875	0		2.954873779296875	-0.015093574523925781	0		4.51165087890625	0.2923887634277344	0		5.66035791015625	0.19058613586425782	0		-0.3266822509765625	5.916892578125	0		
-0.006900083065032959	-0.004228876113891601	0		0.4147599182128906	-2.408602294921875	0		-1.183955810546875	0.005462502956390381	0		-0.7823754272460938	-2.54552197265625	0		1.424273681640625	-0.8214281616210938	0		2.949666259765625	-0.008245000839233399	0		4.50545703125	0.2991892700195313	0		5.66076904296875	0.18471989440917969	0		-0.3115892028808594	5.925466796875	0		
-0.004191896915435791	-0.001415194034576416	0		0.4770206909179687	-2.423063232421875	0		-1.178416015625	2.628389894962311E-4	0		-0.8028707275390625	-2.5471923828125	0		1.435883544921875	-0.8218612060546875	0		2.9710546875	-0.02094771957397461	0		4.51790234375	0.28861187744140626	0		5.669888671875	0.195749755859375	0		-0.296537109375	5.93303955078125	0		
0.0056679282188415525	0.008251247406005859	0		0.44698916625976565	-2.403574462890625	0		-1.09359375	0.0073940038681030275	0		-0.7761089477539063	-2.537854248046875	0		1.438567138671875	-0.8190991821289062	0		2.956919189453125	-0.010886198043823242	0		4.50477783203125	0.29859506225585936	0		5.65910546875	0.21475509643554688	0		-0.3118309020996094	5.9252470703125	0		
0.015222758293151855	0.0029232020378112795	0		0.46635565185546873	-2.414127197265625	0		-1.117926025390625	0.007818559169769286	0		-0.7914439086914062	-2.533630859375	0		1.42620458984375	-0.8190123901367188	0		2.95522265625	-0.028078332901000976	0		4.51030126953125	0.2912013244628906	0		5.655904296875	0.20226741027832032	0		-0.32617825317382815	5.91543701171875	0		
-0.005201388835906982	-0.0017688779830932618	0		0.46491796875	-2.416234619140625	0		-1.1182489013671875	0.007737096786499024	0		-0.7501693115234375	-2.549605712890625	0		1.445831298828125	-0.8205924682617187	0		2.9457529296875	-0.03509063339233399	0		4.50483984375	0.28405780029296873	0		5.6527138671875	0.1898179931640625	0		-0.32632354736328123	5.91533154296875	0		
-0.0055071539878845215	-0.001881240963935852	0		0.4645472412109375	-2.416359619140625	0		-1.1067684326171876	-0.002596808910369873	0		-0.8194013671875	-2.542240478515625	0		1.4255291748046874	-0.8193211669921875	0		2.959443115234375	-0.03557839965820313	0		4.5045419921875	0.2838240966796875	0		5.659564453125	0.18208055114746094	0		-0.3264701232910156	5.91522802734375	0		
-0.005792922973632812	-0.0019915070533752443	0		0.4241914672851563	-2.41663427734375	0		-1.10705419921875	-0.002680706024169922	0		-0.7719703979492187	-2.553344970703125	0		1.4310743408203126	-0.8265911865234375	0		2.954305908203125	-0.028655387878417968	0		4.5035595703125	0.2976238708496094	0		5.66166357421875	0.20057492065429688	0		-0.3124056701660156	5.92482666015625	0		
0.022001808166503906	3.0627000331878663E-4	0		0.46493215942382815	-2.41462109375	0		-1.176216552734375	0.0026954619884490966	0		-0.8159804077148437	-2.538508056640625	0		1.4300911865234376	-0.8127117919921875	0		2.958893310546875	-0.035930694580078124	0		4.51400439453125	0.2831902160644531	0		5.66147412109375	0.2001834716796875	0		-0.32675149536132814	5.91502392578125	0		
